solid OpenSCAD_Model
  facet normal -1 0 0
    outer loop
      vertex 0 0 0
      vertex 0 140 4
      vertex 0 140 0
    endloop
  endfacet
  facet normal -1 -0 0
    outer loop
      vertex 0 140 4
      vertex 0 0 0
      vertex 0 0 4
    endloop
  endfacet
  facet normal 0 0 1
    outer loop
      vertex 140 140 4
      vertex 115 115 4
      vertex 140 0 4
    endloop
  endfacet
  facet normal 0 0 1
    outer loop
      vertex 140 140 4
      vertex 25 115 4
      vertex 115 115 4
    endloop
  endfacet
  facet normal 0 0 1
    outer loop
      vertex 25 115 4
      vertex 0 140 4
      vertex 25 25 4
    endloop
  endfacet
  facet normal -0 0 1
    outer loop
      vertex 0 140 4
      vertex 25 115 4
      vertex 140 140 4
    endloop
  endfacet
  facet normal -0 0 1
    outer loop
      vertex 115 25 4
      vertex 140 0 4
      vertex 115 115 4
    endloop
  endfacet
  facet normal -0 0 1
    outer loop
      vertex 25 25 4
      vertex 140 0 4
      vertex 115 25 4
    endloop
  endfacet
  facet normal 0 0 1
    outer loop
      vertex 25 25 4
      vertex 0 0 4
      vertex 140 0 4
    endloop
  endfacet
  facet normal 0 0 1
    outer loop
      vertex 0 0 4
      vertex 25 25 4
      vertex 0 140 4
    endloop
  endfacet
  facet normal 1 -0 0
    outer loop
      vertex 140 0 4
      vertex 140 140 0
      vertex 140 140 4
    endloop
  endfacet
  facet normal 1 0 0
    outer loop
      vertex 140 140 0
      vertex 140 0 4
      vertex 140 0 0
    endloop
  endfacet
  facet normal 0 0 -1
    outer loop
      vertex 0 0 0
      vertex 140 140 0
      vertex 140 0 0
    endloop
  endfacet
  facet normal -0 0 -1
    outer loop
      vertex 140 140 0
      vertex 0 0 0
      vertex 0 140 0
    endloop
  endfacet
  facet normal 0 -1 0
    outer loop
      vertex 0 0 0
      vertex 140 0 4
      vertex 0 0 4
    endloop
  endfacet
  facet normal 0 -1 -0
    outer loop
      vertex 140 0 4
      vertex 0 0 0
      vertex 140 0 0
    endloop
  endfacet
  facet normal 0 1 -0
    outer loop
      vertex 140 140 0
      vertex 0 140 4
      vertex 140 140 4
    endloop
  endfacet
  facet normal 0 1 0
    outer loop
      vertex 0 140 4
      vertex 140 140 0
      vertex 0 140 0
    endloop
  endfacet
  facet normal -1 0 0
    outer loop
      vertex 25 25 4
      vertex 25 115 36
      vertex 25 115 4
    endloop
  endfacet
  facet normal -1 -0 0
    outer loop
      vertex 25 115 36
      vertex 25 25 4
      vertex 25 25 36
    endloop
  endfacet
  facet normal 0 0 -1
    outer loop
      vertex 140 0 36
      vertex 115 25 36
      vertex 140 140 36
    endloop
  endfacet
  facet normal 0 0 -1
    outer loop
      vertex 140 0 36
      vertex 25 25 36
      vertex 115 25 36
    endloop
  endfacet
  facet normal -0 0 -1
    outer loop
      vertex 25 25 36
      vertex 0 0 36
      vertex 25 115 36
    endloop
  endfacet
  facet normal 0 0 -1
    outer loop
      vertex 0 0 36
      vertex 25 25 36
      vertex 140 0 36
    endloop
  endfacet
  facet normal 0 0 -1
    outer loop
      vertex 115 115 36
      vertex 140 140 36
      vertex 115 25 36
    endloop
  endfacet
  facet normal 0 0 -1
    outer loop
      vertex 25 115 36
      vertex 140 140 36
      vertex 115 115 36
    endloop
  endfacet
  facet normal 0 0 -1
    outer loop
      vertex 25 115 36
      vertex 0 140 36
      vertex 140 140 36
    endloop
  endfacet
  facet normal 0 0 -1
    outer loop
      vertex 0 140 36
      vertex 25 115 36
      vertex 0 0 36
    endloop
  endfacet
  facet normal 1 -0 0
    outer loop
      vertex 115 25 36
      vertex 115 115 4
      vertex 115 115 36
    endloop
  endfacet
  facet normal 1 0 0
    outer loop
      vertex 115 115 4
      vertex 115 25 36
      vertex 115 25 4
    endloop
  endfacet
  facet normal 0 -1 0
    outer loop
      vertex 25 25 4
      vertex 115 25 36
      vertex 25 25 36
    endloop
  endfacet
  facet normal 0 -1 -0
    outer loop
      vertex 115 25 36
      vertex 25 25 4
      vertex 115 25 4
    endloop
  endfacet
  facet normal 0 1 -0
    outer loop
      vertex 115 115 4
      vertex 25 115 36
      vertex 115 115 36
    endloop
  endfacet
  facet normal 0 1 0
    outer loop
      vertex 25 115 36
      vertex 115 115 4
      vertex 25 115 4
    endloop
  endfacet
  facet normal -1 0 0
    outer loop
      vertex 0 0 36
      vertex 0 140 40
      vertex 0 140 36
    endloop
  endfacet
  facet normal -1 -0 0
    outer loop
      vertex 0 140 40
      vertex 0 0 36
      vertex 0 0 40
    endloop
  endfacet
  facet normal -0 0 1
    outer loop
      vertex 0 140 40
      vertex 140 0 40
      vertex 140 140 40
    endloop
  endfacet
  facet normal 0 0 1
    outer loop
      vertex 140 0 40
      vertex 0 140 40
      vertex 0 0 40
    endloop
  endfacet
  facet normal 1 -0 0
    outer loop
      vertex 140 0 40
      vertex 140 140 36
      vertex 140 140 40
    endloop
  endfacet
  facet normal 1 0 0
    outer loop
      vertex 140 140 36
      vertex 140 0 40
      vertex 140 0 36
    endloop
  endfacet
  facet normal 0 1 -0
    outer loop
      vertex 140 140 36
      vertex 0 140 40
      vertex 140 140 40
    endloop
  endfacet
  facet normal 0 1 0
    outer loop
      vertex 0 140 40
      vertex 140 140 36
      vertex 0 140 36
    endloop
  endfacet
  facet normal 0 -1 0
    outer loop
      vertex 0 0 36
      vertex 140 0 40
      vertex 0 0 40
    endloop
  endfacet
  facet normal 0 -1 -0
    outer loop
      vertex 140 0 40
      vertex 0 0 36
      vertex 140 0 36
    endloop
  endfacet
endsolid OpenSCAD_Model
