solid OpenSCAD_Model
  facet normal -1 0 0
    outer loop
      vertex -1 3 21.1
      vertex -1 35.9 0
      vertex -1 3 7.3
    endloop
  endfacet
  facet normal -1 0 0
    outer loop
      vertex -1 0 0
      vertex -1 3 7.3
      vertex -1 35.9 0
    endloop
  endfacet
  facet normal -1 -0 0
    outer loop
      vertex -1 3 7.3
      vertex -1 0 0
      vertex -1 0 7.3
    endloop
  endfacet
  facet normal -1 0 0
    outer loop
      vertex -1 35.9 0
      vertex -1 3 21.1
      vertex -1 35.9 28.8
    endloop
  endfacet
  facet normal -1 0 0
    outer loop
      vertex -1 0 28.8
      vertex -1 3 21.1
      vertex -1 0 21.1
    endloop
  endfacet
  facet normal -1 0 0
    outer loop
      vertex -1 3 21.1
      vertex -1 0 28.8
      vertex -1 35.9 28.8
    endloop
  endfacet
  facet normal -0 0 1
    outer loop
      vertex -1 35.9 28.8
      vertex 12.8 0 28.8
      vertex 12.8 35.9 28.8
    endloop
  endfacet
  facet normal 0 0 1
    outer loop
      vertex 12.8 0 28.8
      vertex -1 35.9 28.8
      vertex -1 0 28.8
    endloop
  endfacet
  facet normal 1 0 0
    outer loop
      vertex 12.8 35.9 28.8
      vertex 12.8 3 21.1
      vertex 12.8 35.9 0
    endloop
  endfacet
  facet normal 1 -0 0
    outer loop
      vertex 12.8 0 28.8
      vertex 12.8 3 21.1
      vertex 12.8 35.9 28.8
    endloop
  endfacet
  facet normal 1 0 0
    outer loop
      vertex 12.8 3 21.1
      vertex 12.8 0 28.8
      vertex 12.8 0 21.1
    endloop
  endfacet
  facet normal 1 -0 0
    outer loop
      vertex 12.8 3 7.3
      vertex 12.8 35.9 0
      vertex 12.8 3 21.1
    endloop
  endfacet
  facet normal 1 0 0
    outer loop
      vertex 12.8 0 0
      vertex 12.8 3 7.3
      vertex 12.8 0 7.3
    endloop
  endfacet
  facet normal 1 0 0
    outer loop
      vertex 12.8 3 7.3
      vertex 12.8 0 0
      vertex 12.8 35.9 0
    endloop
  endfacet
  facet normal 0 1 -0
    outer loop
      vertex 12.8 35.9 0
      vertex -1 35.9 28.8
      vertex 12.8 35.9 28.8
    endloop
  endfacet
  facet normal 0 1 0
    outer loop
      vertex -1 35.9 28.8
      vertex 12.8 35.9 0
      vertex -1 35.9 0
    endloop
  endfacet
  facet normal 0 0 -1
    outer loop
      vertex -1 0 0
      vertex 12.8 35.9 0
      vertex 12.8 0 0
    endloop
  endfacet
  facet normal -0 0 -1
    outer loop
      vertex 12.8 35.9 0
      vertex -1 0 0
      vertex -1 35.9 0
    endloop
  endfacet
  facet normal 0 -1 0
    outer loop
      vertex -1 0 21.1
      vertex 12.8 0 28.8
      vertex -1 0 28.8
    endloop
  endfacet
  facet normal 0 -1 -0
    outer loop
      vertex 12.8 0 28.8
      vertex -1 0 21.1
      vertex 12.8 0 21.1
    endloop
  endfacet
  facet normal 0 -1 0
    outer loop
      vertex -1 0 0
      vertex 12.8 0 7.3
      vertex -1 0 7.3
    endloop
  endfacet
  facet normal 0 -1 -0
    outer loop
      vertex 12.8 0 7.3
      vertex -1 0 0
      vertex 12.8 0 0
    endloop
  endfacet
  facet normal 1 -0 0
    outer loop
      vertex 20.8 -32.9 21.1
      vertex 20.8 3 7.3
      vertex 20.8 3 21.1
    endloop
  endfacet
  facet normal 1 0 0
    outer loop
      vertex 20.8 3 7.3
      vertex 20.8 -32.9 21.1
      vertex 20.8 -32.9 7.3
    endloop
  endfacet
  facet normal 0 0 1
    outer loop
      vertex -1 3 21.1
      vertex -8 3 21.1
      vertex -1 0 21.1
    endloop
  endfacet
  facet normal 0 0 1
    outer loop
      vertex 12.8 0 21.1
      vertex 20.8 3 21.1
      vertex 12.8 3 21.1
    endloop
  endfacet
  facet normal 0 0 1
    outer loop
      vertex 20.8 3 21.1
      vertex 12.8 0 21.1
      vertex 20.8 -32.9 21.1
    endloop
  endfacet
  facet normal 0 0 1
    outer loop
      vertex -8 -32.9 21.1
      vertex 12.8 0 21.1
      vertex -1 0 21.1
    endloop
  endfacet
  facet normal 0 0 1
    outer loop
      vertex -8 -32.9 21.1
      vertex -1 0 21.1
      vertex -8 3 21.1
    endloop
  endfacet
  facet normal 0 0 1
    outer loop
      vertex 12.8 0 21.1
      vertex -8 -32.9 21.1
      vertex 20.8 -32.9 21.1
    endloop
  endfacet
  facet normal 0 -1 0
    outer loop
      vertex -8 -32.9 7.3
      vertex 20.8 -32.9 21.1
      vertex -8 -32.9 21.1
    endloop
  endfacet
  facet normal 0 -1 -0
    outer loop
      vertex 20.8 -32.9 21.1
      vertex -8 -32.9 7.3
      vertex 20.8 -32.9 7.3
    endloop
  endfacet
  facet normal 0 1 -0
    outer loop
      vertex 20.8 3 7.3
      vertex 12.8 3 21.1
      vertex 20.8 3 21.1
    endloop
  endfacet
  facet normal 0 1 0
    outer loop
      vertex 12.8 3 21.1
      vertex 20.8 3 7.3
      vertex 12.8 3 7.3
    endloop
  endfacet
  facet normal 0 1 -0
    outer loop
      vertex -1 3 7.3
      vertex -8 3 21.1
      vertex -1 3 21.1
    endloop
  endfacet
  facet normal 0 1 0
    outer loop
      vertex -8 3 21.1
      vertex -1 3 7.3
      vertex -8 3 7.3
    endloop
  endfacet
  facet normal -1 0 -6.91068e-08
    outer loop
      vertex -8 -32.9 7.3
      vertex -8 3 21.1
      vertex -8 3 7.3
    endloop
  endfacet
  facet normal -1 -0 -6.91068e-08
    outer loop
      vertex -8 3 21.1
      vertex -8 -32.9 7.3
      vertex -8 -32.9 21.1
    endloop
  endfacet
  facet normal 0 0 -1
    outer loop
      vertex 20.8 -32.9 7.3
      vertex 12.8 0 7.3
      vertex 20.8 3 7.3
    endloop
  endfacet
  facet normal 0 0 -1
    outer loop
      vertex -8 -32.9 7.3
      vertex 12.8 0 7.3
      vertex 20.8 -32.9 7.3
    endloop
  endfacet
  facet normal -0 0 -1
    outer loop
      vertex 12.8 0 7.3
      vertex -8 -32.9 7.3
      vertex -1 0 7.3
    endloop
  endfacet
  facet normal 0 0 -1
    outer loop
      vertex -8 3 7.3
      vertex -1 0 7.3
      vertex -8 -32.9 7.3
    endloop
  endfacet
  facet normal 0 0 -1
    outer loop
      vertex -1 0 7.3
      vertex -8 3 7.3
      vertex -1 3 7.3
    endloop
  endfacet
  facet normal -0 0 -1
    outer loop
      vertex 20.8 3 7.3
      vertex 12.8 0 7.3
      vertex 12.8 3 7.3
    endloop
  endfacet
endsolid OpenSCAD_Model
